{
  "asset": { "version": "2.0", "generator": "Kairo Phase 3 reference fixture" },
  "scene": 0,
  "scenes": [{ "nodes": [0] }],
  "nodes": [{ "name": "TexturedPanel", "mesh": 0 }],
  "meshes": [{ "primitives": [{
    "attributes": { "POSITION": 0, "NORMAL": 1, "TEXCOORD_0": 2 },
    "indices": 3,
    "material": 0
  }] }],
  "materials": [{
    "name": "ReferenceChecker",
    "pbrMetallicRoughness": {
      "baseColorTexture": { "index": 0 },
      "metallicFactor": 0.0,
      "roughnessFactor": 0.55
    }
  }],
  "textures": [{ "source": 0 }],
  "images": [{ "uri": "checker.png" }],
  "buffers": [{
    "byteLength": 140,
    "uri": "data:application/octet-stream;base64,"
  }],
  "bufferViews": [
    { "buffer": 0, "byteOffset": 0, "byteLength": 48, "target": 34962 },
    { "buffer": 0, "byteOffset": 48, "byteLength": 48, "target": 34962 },
    { "buffer": 0, "byteOffset": 96, "byteLength": 32, "target": 34962 },
    { "buffer": 0, "byteOffset": 128, "byteLength": 12, "target": 34963 }
  ],
  "accessors": [
    { "bufferView": 0, "componentType": 5126, "count": 4, "type": "VEC3", "min": [-1, -1, 0], "max": [1, 1, 0] },
    { "bufferView": 1, "componentType": 5126, "count": 4, "type": "VEC3" },
    { "bufferView": 2, "componentType": 5126, "count": 4, "type": "VEC2" },
    { "bufferView": 3, "componentType": 5123, "count": 6, "type": "SCALAR" }
  ]
}
